<?xml version="1.0" encoding="UTF-8"?>
<svg width="16px" height="16px" viewBox="0 0 16 16" version="1.1" xmlns="http://www.w3.org/2000/svg" xmlns:xlink="http://www.w3.org/1999/xlink">
    <!-- Generator: Sketch 51.3 (57544) - http://www.bohemiancoding.com/sketch -->
    <title>google</title>
    <desc>Created with Sketch.</desc>
    <defs></defs>
    <g id="Page-1" stroke="none" stroke-width="1" fill="none" fill-rule="evenodd">
        <g id="01.-Trang-Chu" transform="translate(-892.000000, -21.000000)" fill-rule="nonzero">
            <g id="Group-4">
                <g id="Group" transform="translate(639.000000, 20.000000)">
                    <g id="Group-28">
                        <g id="Group-25-Copy" transform="translate(253.000000, 1.000000)">
                            <g id="google">
                                <path d="M14.1190312,7.4856875 L14.1190312,14.287375 L11.9814688,13.8917188 L11.0390937,12.7612813 L7.06846875,8.34709375 L10.4395938,5.9518125 C12.12825,8.18075 12.1815,7.637375 12.1815,7.637375 C12.1815,7.637375 13.015625,6.3920625 14.08575,7.46215625 L14.1190312,7.4856875 Z" id="Shape" fill="#CCCCCC"></path>
                                <path d="M5.95959375,6.97203125 L12.9693125,15.9937813 C12.9285,15.9977813 12.88725,16 12.8455625,16 L1.3855,16 L5.95959375,6.97203125 Z" id="Shape" fill="#518EF8"></path>
                                <path d="M10.439625,5.9518125 L0.01396875,14.7265 L0.01396875,3.16840625 C0.01396875,2.46490625 0.58440625,1.89490625 1.28746875,1.89490625 L8.89025,1.89490625 C8.56378125,2.45603125 9.77428125,2.8161875 9.77428125,3.51215625 C9.77428125,4.21259375 10.1091875,5.38803125 10.439625,5.9518125 Z" id="Shape" fill="#28B446"></path>
                                <path d="M14.1190313,14.287375 L14.1190313,14.7265 C14.1190313,15.387875 13.6146875,15.9316875 12.9693125,15.9937813 L7.10353125,10.2052188 L8.52340625,8.76628125 L11.8005,11.9999063 L11.9814688,12.1786563 L14.1190313,14.287375 Z" id="Shape" fill="#F2F2F2"></path>
                                <path d="M10.0785625,7.19025 L8.52340625,8.76625 L7.10353125,10.2051875 L1.3855,16 L1.28746875,16 C0.58440625,16 0.01396875,15.4295625 0.01396875,14.7265 L8.89690625,5.7246875 C9.06325,6.00946875 10.2072188,5.721125 10.4396563,5.95178125 L10.8668438,6.50090625 C11.0753125,6.7231875 9.899375,6.95428125 10.0785625,7.19025 Z" id="Shape" fill="#FFD837"></path>
                                <path d="M3.34075,7.11796875 C2.22175,7.11796875 1.31140625,6.207625 1.31140625,5.088625 C1.31140625,3.969625 2.22175,3.05928125 3.34075,3.05928125 C3.8824375,3.05928125 4.39190625,3.27046875 4.7754375,3.65396875 L4.30490625,4.12440625 C4.04715625,3.86659375 3.70471875,3.724625 3.34075,3.724625 C2.588625,3.724625 1.97678125,4.3365 1.97678125,5.08859375 C1.97678125,5.8406875 2.58865625,6.4525625 3.34075,6.4525625 C3.978125,6.4525625 4.51484375,6.013125 4.6636875,5.42125 L3.34075,5.42125 L3.34075,4.75590625 L5.37009375,4.75590625 L5.37009375,5.08859375 C5.3700625,6.207625 4.45975,7.11796875 3.34075,7.11796875 Z" id="Shape" fill="#FFFFFF"></path>
                                <path d="M8.89025,1.8949375 C9.5489375,0.7620625 10.7763125,0 12.1815313,0 C14.2827188,0 15.9860312,1.7033125 15.9860312,3.8045 C15.9860312,4.33146875 15.8786875,4.833125 15.6852812,5.2895625 C15.4914375,5.746 15.2110937,6.15675 14.865125,6.5009375 C14.5768125,6.8074375 14.3182187,7.13125 14.0857812,7.46215625 C12.563,9.63165625 12.1815312,12.1085625 12.1815312,12.1085625 C12.1815312,12.1085625 11.76725,9.4191875 10.0785625,7.19025 C9.899375,6.95428125 9.70596875,6.72315625 9.4975,6.5009375 L9.4979375,6.5009375 C9.2655,6.27028125 9.06325,6.00946875 8.89690625,5.7246875 C8.5664375,5.16090625 8.37703125,4.504875 8.37703125,3.80446875 C8.37703125,3.10853125 8.56378125,2.45603125 8.89025,1.8949375 Z" id="Shape" fill="#F14336"></path>
                                <path d="M12.1815625,1.77959375 C13.2997188,1.77959375 14.2059688,2.686375 14.2059688,3.80453125 C14.2059688,4.9226875 13.2997188,5.8289375 12.1815625,5.8289375 C11.0634062,5.8289375 10.156625,4.9226875 10.156625,3.80453125 C10.156625,2.686375 11.0634375,1.77959375 12.1815625,1.77959375 Z" id="Shape" fill="#7E2D25"></path>
                            </g>
                        </g>
                    </g>
                </g>
            </g>
        </g>
    </g>
</svg>