<?xml version="1.0" encoding="UTF-8"?>
<svg width="50px" height="50px" viewBox="0 0 50 50" version="1.1" xmlns="http://www.w3.org/2000/svg" xmlns:xlink="http://www.w3.org/1999/xlink">
    <!-- Generator: Sketch 51.3 (57544) - http://www.bohemiancoding.com/sketch -->
    <title>Combined Shape</title>
    <desc>Created with Sketch.</desc>
    <defs></defs>
    <g id="Page-1" stroke="none" stroke-width="1" fill="none" fill-rule="evenodd">
        <g id="01.-Trang-Chu" transform="translate(-178.000000, -965.000000)" fill="#145C90" fill-rule="nonzero">
            <path d="M220.677734,972.322266 C215.955762,967.600391 209.677734,965 203,965 C196.322266,965 190.044238,967.600391 185.322266,972.322266 C180.600293,977.044141 178,983.322266 178,990 C178,996.677734 180.600391,1002.95576 185.322266,1007.67773 C190.044141,1012.39971 196.322266,1015 203,1015 C209.677734,1015 215.955762,1012.39961 220.677734,1007.67773 C225.399707,1002.95586 228,996.677734 228,990 C228,983.322266 225.399609,977.044238 220.677734,972.322266 Z M219.572852,1006.57285 C215.146094,1010.99961 209.260352,1013.4375 203,1013.4375 C196.739648,1013.4375 190.853906,1010.99961 186.427148,1006.57285 C182.000391,1002.14609 179.5625,996.260352 179.5625,990 C179.5625,983.739648 182.000391,977.853906 186.427148,973.427148 C190.853906,969.000391 196.739648,966.5625 203,966.5625 C209.260352,966.5625 215.146094,969.000391 219.572852,973.427148 C223.999609,977.853906 226.4375,983.739648 226.4375,990 C226.4375,996.260352 223.999609,1002.14609 219.572852,1006.57285 Z M182.6875,990 C182.6875,978.799707 191.799707,969.6875 203,969.6875 C207.039844,969.6875 210.941992,970.870215 214.284668,973.107813 C214.643164,973.347852 215.128418,973.251758 215.368457,972.893164 C215.608496,972.534668 215.512402,972.049414 215.153809,971.809375 C211.553125,969.399023 207.350391,968.125 203,968.125 C197.156934,968.125 191.663672,970.400391 187.532031,974.532031 C183.400391,978.663672 181.125,984.156934 181.125,990 C181.125,995.390625 183.10293,1000.56953 186.694531,1004.58281 C186.848828,1004.75527 187.0625,1004.84307 187.276953,1004.84307 C187.462402,1004.84307 187.648633,1004.77744 187.797656,1004.64395 C188.119141,1004.35615 188.146582,1003.8623 187.858789,1003.54082 C184.524121,999.814453 182.6875,995.005566 182.6875,990 Z M221.190723,977.846387 C220.950684,977.487793 220.46543,977.391699 220.106934,977.631738 C219.748437,977.871777 219.652246,978.357031 219.892285,978.715527 C222.129785,982.058105 223.3125,985.960254 223.3125,990 C223.3125,1001.20029 214.200293,1010.3125 203,1010.3125 C198.353223,1010.3125 193.810937,1008.70322 190.210059,1005.78115 C189.875,1005.50928 189.383008,1005.56045 189.111133,1005.89551 C188.839258,1006.23057 188.89043,1006.72256 189.225488,1006.99443 C193.103906,1010.1417 197.995801,1011.875 203,1011.875 C208.843066,1011.875 214.336328,1009.59961 218.467969,1005.46797 C222.599609,1001.33633 224.875,995.843066 224.875,990 C224.875,985.649707 223.600977,981.446973 221.190723,977.846387 Z M216.54082,974.858887 C217.066113,975.328906 217.572559,975.831934 218.046094,976.353809 C218.200293,976.52373 218.412207,976.610059 218.624902,976.610059 C218.812109,976.610059 219.000098,976.543066 219.149707,976.407324 C219.469141,976.117383 219.493164,975.623242 219.203223,975.303711 C218.693457,974.741992 218.148242,974.200586 217.582812,973.694531 C217.261328,973.406836 216.767383,973.43418 216.479688,973.755664 C216.191992,974.077148 216.219238,974.571094 216.54082,974.858887 Z M203,975.15625 C203.431445,975.15625 203.78125,974.806445 203.78125,974.375 L203.78125,972.03125 C203.78125,971.599805 203.431445,971.25 203,971.25 C202.568555,971.25 202.21875,971.599805 202.21875,972.03125 L202.21875,974.375 C202.21875,974.806445 202.568555,975.15625 203,975.15625 Z M202.21875,1005.625 L202.21875,1007.96875 C202.21875,1008.4002 202.568555,1008.75 203,1008.75 C203.431445,1008.75 203.78125,1008.4002 203.78125,1007.96875 L203.78125,1005.625 C203.78125,1005.19355 203.431445,1004.84375 203,1004.84375 C202.568555,1004.84375 202.21875,1005.19355 202.21875,1005.625 Z M188.15625,990 C188.15625,989.568555 187.806445,989.21875 187.375,989.21875 L185.03125,989.21875 C184.599805,989.21875 184.25,989.568555 184.25,990 C184.25,990.431445 184.599805,990.78125 185.03125,990.78125 L187.375,990.78125 C187.806445,990.78125 188.15625,990.431445 188.15625,990 Z M217.84375,990 C217.84375,990.431445 218.193555,990.78125 218.625,990.78125 L220.96875,990.78125 C221.400195,990.78125 221.75,990.431445 221.75,990 C221.75,989.568555 221.400195,989.21875 220.96875,989.21875 L218.625,989.21875 C218.193555,989.21875 217.84375,989.568555 217.84375,990 Z M195.864062,976.077734 L194.692187,974.047949 C194.476465,973.674219 193.998633,973.546387 193.625,973.762012 C193.251367,973.977734 193.12334,974.455566 193.339062,974.829199 L194.510937,976.858984 C194.655664,977.10957 194.918262,977.249707 195.188281,977.249707 C195.320801,977.249707 195.455176,977.215918 195.578223,977.144922 C195.951758,976.929199 196.079785,976.451367 195.864062,976.077734 Z M211.489062,1003.14102 C211.27334,1002.76738 210.79541,1002.63955 210.421875,1002.85508 C210.048242,1003.0708 209.920215,1003.54863 210.135938,1003.92227 L211.307813,1005.95205 C211.452539,1006.20264 211.715137,1006.34277 211.985156,1006.34277 C212.117676,1006.34277 212.252051,1006.30898 212.375098,1006.23799 C212.74873,1006.02227 212.876758,1005.54443 212.661035,1005.1708 L211.489062,1003.14102 Z M187.439355,999.765723 C187.571875,999.765723 187.70625,999.731934 187.829297,999.660938 L189.859082,998.489063 C190.232715,998.27334 190.360742,997.795508 190.14502,997.421875 C189.929297,997.048242 189.451367,996.92041 189.077832,997.135937 L187.048047,998.307812 C186.674414,998.523535 186.546387,999.001367 186.762109,999.375 C186.906738,999.625586 187.169336,999.765723 187.439355,999.765723 Z M216.532324,982.968848 C216.664844,982.968848 216.799219,982.935059 216.922266,982.864063 L218.952051,981.692188 C219.325684,981.476465 219.453711,980.998633 219.237988,980.625 C219.022266,980.251367 218.544434,980.123535 218.170801,980.339062 L216.141016,981.510937 C215.767383,981.72666 215.639355,982.204492 215.855078,982.578125 C215.999805,982.828711 216.262402,982.968848 216.532324,982.968848 Z M212.375,973.762012 C212.001367,973.546191 211.523535,973.674219 211.307813,974.047949 L210.135938,976.077734 C209.920215,976.451367 210.048242,976.929199 210.421875,977.144922 C210.544922,977.216016 210.679199,977.249707 210.811816,977.249707 C211.081836,977.249707 211.344434,977.10957 211.48916,976.858984 L212.661035,974.829199 C212.87666,974.455566 212.748633,973.977734 212.375,973.762012 Z M195.578125,1002.85508 C195.204492,1002.63936 194.72666,1002.76738 194.510937,1003.14102 L193.339062,1005.1708 C193.12334,1005.54443 193.251367,1006.02227 193.625,1006.23799 C193.748047,1006.30908 193.882324,1006.34277 194.014941,1006.34277 C194.284961,1006.34277 194.547559,1006.20264 194.692285,1005.95205 L195.86416,1003.92227 C196.079785,1003.54863 195.951758,1003.0708 195.578125,1002.85508 Z M216.141016,998.489063 L218.170801,999.660938 C218.293848,999.732031 218.428125,999.765723 218.560742,999.765723 C218.830762,999.765723 219.093359,999.625586 219.238086,999.375 C219.453809,999.001367 219.325781,998.523535 218.952148,998.307813 L216.922363,997.135938 C216.54873,996.920117 216.070898,997.048242 215.855176,997.421875 C215.639355,997.795508 215.767383,998.27334 216.141016,998.489063 Z M189.858984,981.510938 L187.829199,980.339063 C187.455566,980.123242 186.977734,980.251367 186.762012,980.625 C186.546289,980.998633 186.674316,981.476465 187.047949,981.692188 L189.077734,982.864063 C189.200781,982.935156 189.335059,982.968848 189.467676,982.968848 C189.737695,982.968848 190.000293,982.828711 190.14502,982.578125 C190.360645,982.204492 190.232617,981.72666 189.858984,981.510938 Z M208.438672,1000.20029 C208.571191,1000.20029 208.705566,1000.1665 208.828613,1000.09551 C209.202246,999.879785 209.330273,999.401953 209.114551,999.02832 L204.780566,991.521582 C205.13125,991.111719 205.34375,990.580371 205.34375,990 C205.34375,988.981543 204.690527,988.113086 203.78125,987.790625 L203.78125,977.5 C203.78125,977.068555 203.431445,976.71875 203,976.71875 C202.568555,976.71875 202.21875,977.068555 202.21875,977.5 L202.21875,987.790625 C201.309473,988.113086 200.65625,988.981543 200.65625,990 C200.65625,991.292383 201.707617,992.34375 203,992.34375 C203.146191,992.34375 203.28916,992.32959 203.428027,992.303906 L207.761426,999.80957 C207.906152,1000.06016 208.16875,1000.20029 208.438672,1000.20029 Z M202.21875,990 C202.21875,989.569238 202.569238,989.21875 203,989.21875 C203.430762,989.21875 203.78125,989.569238 203.78125,990 C203.78125,990.430762 203.430762,990.78125 203,990.78125 C202.569238,990.78125 202.21875,990.430762 202.21875,990 Z" id="Combined-Shape"></path>
        </g>
    </g>
</svg>